C:\Users\u0145647\OneDrive - KU Leuven\KU Leuven\BCN_Workshop\ParameterEstimation\Data_CP1\IPSA\JointAngles\JointAngles_segment_16.mot
version=1
nRows=105
nColumns=4
inDegrees=yes
endheader
                time	         pelvis_tilt	       hip_flexion_l	       ankle_angle_l	
          2.87500000	         90.00000000	          0.00000000	        -33.94181699	
          2.88000000	         90.00000000	          0.00000000	        -33.84641656	
          2.88500000	         90.00000000	          0.00000000	        -33.75022824	
          2.89000000	         90.00000000	          0.00000000	        -33.65419000	
          2.89500000	         90.00000000	          0.00000000	        -33.55860124	
          2.90000000	         90.00000000	          0.00000000	        -33.46253221	
          2.90500000	         90.00000000	          0.00000000	        -33.36505846	
          2.91000000	         90.00000000	          0.00000000	        -33.26560566	
          2.91500000	         90.00000000	          0.00000000	        -33.16400615	
          2.92000000	         90.00000000	          0.00000000	        -33.06036970	
          2.92500000	         90.00000000	          0.00000000	        -32.95474059	
          2.93000000	         90.00000000	          0.00000000	        -32.84716088	
          2.93500000	         90.00000000	          0.00000000	        -32.73776582	
          2.94000000	         90.00000000	          0.00000000	        -32.62708062	
          2.94500000	         90.00000000	          0.00000000	        -32.51574000	
          2.95000000	         90.00000000	          0.00000000	        -32.40436104	
          2.95500000	         90.00000000	          0.00000000	        -32.29273206	
          2.96000000	         90.00000000	          0.00000000	        -32.17931649	
          2.96500000	         90.00000000	          0.00000000	        -32.06250730	
          2.97000000	         90.00000000	          0.00000000	        -31.94224244	
          2.97500000	         90.00000000	          0.00000000	        -31.81976571	
          2.98000000	         90.00000000	          0.00000000	        -31.69640394	
          2.98500000	         90.00000000	          0.00000000	        -31.57308325	
          2.99000000	         90.00000000	          0.00000000	        -31.45045062	
          2.99500000	         90.00000000	          0.00000000	        -31.32872756	
          3.00000000	         90.00000000	          0.00000000	        -31.20730438	
          3.00500000	         90.00000000	          0.00000000	        -31.08558141	
          3.01000000	         90.00000000	          0.00000000	        -30.96421524	
          3.01500000	         90.00000000	          0.00000000	        -30.84456676	
          3.02000000	         90.00000000	          0.00000000	        -30.72681888	
          3.02500000	         90.00000000	          0.00000000	        -30.60982363	
          3.03000000	         90.00000000	          0.00000000	        -30.49179642	
          3.03500000	         90.00000000	          0.00000000	        -30.37134611	
          3.04000000	         90.00000000	          0.00000000	        -30.24826490	
          3.04500000	         90.00000000	          0.00000000	        -30.12284106	
          3.05000000	         90.00000000	          0.00000000	        -29.99589441	
          3.05500000	         90.00000000	          0.00000000	        -29.86897473	
          3.06000000	         90.00000000	          0.00000000	        -29.74334515	
          3.06500000	         90.00000000	          0.00000000	        -29.61906402	
          3.07000000	         90.00000000	          0.00000000	        -29.49495755	
          3.07500000	         90.00000000	          0.00000000	        -29.36974778	
          3.08000000	         90.00000000	          0.00000000	        -29.24243729	
          3.08500000	         90.00000000	          0.00000000	        -29.11347002	
          3.09000000	         90.00000000	          0.00000000	        -28.98371182	
          3.09500000	         90.00000000	          0.00000000	        -28.85355736	
          3.10000000	         90.00000000	          0.00000000	        -28.72230824	
          3.10500000	         90.00000000	          0.00000000	        -28.58952872	
          3.11000000	         90.00000000	          0.00000000	        -28.45518003	
          3.11500000	         90.00000000	          0.00000000	        -28.31939759	
          3.12000000	         90.00000000	          0.00000000	        -28.18268505	
          3.12500000	         90.00000000	          0.00000000	        -28.04582694	
          3.13000000	         90.00000000	          0.00000000	        -27.90906562	
          3.13500000	         90.00000000	          0.00000000	        -27.77255627	
          3.14000000	         90.00000000	          0.00000000	        -27.63663170	
          3.14500000	         90.00000000	          0.00000000	        -27.50175825	
          3.15000000	         90.00000000	          0.00000000	        -27.36844030	
          3.15500000	         90.00000000	          0.00000000	        -27.23717319	
          3.16000000	         90.00000000	          0.00000000	        -27.10783824	
          3.16500000	         90.00000000	          0.00000000	        -26.97929336	
          3.17000000	         90.00000000	          0.00000000	        -26.84999834	
          3.17500000	         90.00000000	          0.00000000	        -26.71870571	
          3.18000000	         90.00000000	          0.00000000	        -26.58504211	
          3.18500000	         90.00000000	          0.00000000	        -26.45003544	
          3.19000000	         90.00000000	          0.00000000	        -26.31449643	
          3.19500000	         90.00000000	          0.00000000	        -26.17859021	
          3.20000000	         90.00000000	          0.00000000	        -26.04217420	
          3.20500000	         90.00000000	          0.00000000	        -25.90543628	
          3.21000000	         90.00000000	          0.00000000	        -25.76870451	
          3.21500000	         90.00000000	          0.00000000	        -25.63274051	
          3.22000000	         90.00000000	          0.00000000	        -25.49804705	
          3.22500000	         90.00000000	          0.00000000	        -25.36484306	
          3.23000000	         90.00000000	          0.00000000	        -25.23327766	
          3.23500000	         90.00000000	          0.00000000	        -25.10273856	
          3.24000000	         90.00000000	          0.00000000	        -24.97248271	
          3.24500000	         90.00000000	          0.00000000	        -24.84226311	
          3.25000000	         90.00000000	          0.00000000	        -24.71208347	
          3.25500000	         90.00000000	          0.00000000	        -24.58221251	
          3.26000000	         90.00000000	          0.00000000	        -24.45286793	
          3.26500000	         90.00000000	          0.00000000	        -24.32400704	
          3.27000000	         90.00000000	          0.00000000	        -24.19592036	
          3.27500000	         90.00000000	          0.00000000	        -24.06868352	
          3.28000000	         90.00000000	          0.00000000	        -23.94266892	
          3.28500000	         90.00000000	          0.00000000	        -23.81805008	
          3.29000000	         90.00000000	          0.00000000	        -23.69455344	
          3.29500000	         90.00000000	          0.00000000	        -23.57190381	
          3.30000000	         90.00000000	          0.00000000	        -23.44946514	
          3.30500000	         90.00000000	          0.00000000	        -23.32584822	
          3.31000000	         90.00000000	          0.00000000	        -23.20035158	
          3.31500000	         90.00000000	          0.00000000	        -23.07414513	
          3.32000000	         90.00000000	          0.00000000	        -22.94895707	
          3.32500000	         90.00000000	          0.00000000	        -22.82570696	
          3.33000000	         90.00000000	          0.00000000	        -22.70439236	
          3.33500000	         90.00000000	          0.00000000	        -22.58467047	
          3.34000000	         90.00000000	          0.00000000	        -22.46595134	
          3.34500000	         90.00000000	          0.00000000	        -22.34719097	
          3.35000000	         90.00000000	          0.00000000	        -22.22746584	
          3.35500000	         90.00000000	          0.00000000	        -22.10680602	
          3.36000000	         90.00000000	          0.00000000	        -21.98604267	
          3.36500000	         90.00000000	          0.00000000	        -21.86600113	
          3.37000000	         90.00000000	          0.00000000	        -21.74638137	
          3.37500000	         90.00000000	          0.00000000	        -21.62574328	
          3.38000000	         90.00000000	          0.00000000	        -21.50372987	
          3.38500000	         90.00000000	          0.00000000	        -21.38129545	
          3.39000000	         90.00000000	          0.00000000	        -21.25954577	
          3.39500000	         90.00000000	          0.00000000	        -21.13879913	
